<?xml version="1.0" standalone="no"?>
<!DOCTYPE svg PUBLIC "-//W3C//DTD SVG 20010904//EN"
 "http://www.w3.org/TR/2001/REC-SVG-20010904/DTD/svg10.dtd">
<svg version="1.0" xmlns="http://www.w3.org/2000/svg"
 width="32.000000pt" height="32.000000pt" viewBox="0 0 32.000000 32.000000"
 preserveAspectRatio="xMidYMid meet">

<g transform="translate(0.000000,32.000000) scale(0.100000,-0.100000)"
fill="#000000" stroke="none">
<path d="M160 285 c0 -14 -6 -25 -13 -25 -19 0 -47 -33 -47 -53 0 -25 16 -21
25 6 7 21 8 20 12 -7 3 -16 0 -32 -5 -35 -17 -11 -32 -49 -32 -81 0 -36 38
-80 70 -80 31 0 70 44 70 79 0 33 -19 81 -32 81 -4 0 -8 18 -8 39 0 22 -4 43
-10 46 -5 3 -10 17 -10 31 0 13 -4 24 -10 24 -5 0 -10 -11 -10 -25z m40 -135
c39 -39 18 -120 -30 -120 -48 0 -69 81 -30 120 11 11 25 20 30 20 6 0 19 -9
30 -20z"/>
</g>
</svg>
