<?xml version="1.0" standalone="no"?>
<!DOCTYPE svg PUBLIC "-//W3C//DTD SVG 20010904//EN"
 "http://www.w3.org/TR/2001/REC-SVG-20010904/DTD/svg10.dtd">
<svg version="1.0" xmlns="http://www.w3.org/2000/svg"
 width="317.000000pt" height="330.000000pt" viewBox="0 0 317.000000 330.000000"
 preserveAspectRatio="xMidYMid meet">

<g transform="translate(0.000000,330.000000) scale(0.100000,-0.100000)"
fill="#000000" stroke="none">
<path d="M65 3200 c-25 -28 -23 -76 4 -103 19 -19 35 -22 121 -25 l100 -4 0
-1414 0 -1414 -99 0 c-81 0 -103 -3 -122 -18 -33 -27 -30 -78 5 -109 l28 -24
275 3 275 3 19 24 c26 32 24 73 -4 99 -21 20 -34 22 -125 22 l-102 0 0 1147 0
1148 267 267 268 268 777 0 778 0 0 -175 0 -175 75 0 75 0 0 174 0 174 101 4
c96 3 102 4 125 31 29 34 30 56 3 91 l-20 26 -1403 0 c-1393 0 -1403 0 -1421
-20z m545 -285 c-85 -85 -158 -155 -162 -155 -5 0 -8 70 -8 155 l0 155 162 0
163 0 -155 -155z"/>
</g>
</svg>
