<?xml version="1.0" standalone="no"?>
<!DOCTYPE svg PUBLIC "-//W3C//DTD SVG 20010904//EN"
 "http://www.w3.org/TR/2001/REC-SVG-20010904/DTD/svg10.dtd">
<svg version="1.0" xmlns="http://www.w3.org/2000/svg"
 width="330.000000pt" height="330.000000pt" viewBox="0 0 330.000000 330.000000"
 preserveAspectRatio="xMidYMid meet">

<g transform="translate(0.000000,330.000000) scale(0.100000,-0.100000)"
fill="#000000" stroke="none">
<path d="M75 3190 c-25 -28 -23 -76 4 -103 19 -19 35 -22 121 -25 l100 -4 0
-1414 0 -1414 -99 0 c-81 0 -103 -3 -122 -18 -33 -27 -30 -78 5 -109 l28 -24
275 3 275 3 19 24 c26 32 24 73 -4 99 -21 20 -34 22 -125 22 l-102 0 0 1147 0
1148 267 267 268 268 777 0 778 0 0 -174 0 -174 -56 -18 c-117 -37 -224 -149
-260 -272 -23 -79 -15 -199 19 -274 45 -101 148 -193 250 -223 l42 -12 3 -74
3 -73 -245 -245 c-270 -271 -281 -287 -233 -335 51 -51 63 -44 272 164 105
105 194 190 198 190 4 0 7 -118 7 -262 l0 -262 -250 -251 c-171 -172 -250
-258 -250 -272 0 -36 42 -76 79 -76 29 0 57 24 264 231 l232 232 232 -232
c203 -203 235 -231 263 -231 41 0 73 32 73 73 0 28 -29 61 -246 278 l-247 247
2 449 3 449 42 12 c104 31 194 112 246 223 28 60 32 77 32 160 0 86 -2 95 -24
113 -27 22 -69 25 -96 5 -16 -11 -21 -32 -26 -104 -9 -130 -51 -198 -152 -242
-57 -25 -148 -28 -199 -7 -89 37 -158 138 -158 231 0 78 20 126 75 183 66 68
141 93 225 73 106 -24 107 -24 134 3 50 50 20 114 -63 137 l-41 11 0 173 0
174 101 4 c96 3 102 4 125 31 29 34 30 56 3 91 l-20 26 -1403 0 c-1393 0
-1403 0 -1421 -20z m545 -285 c-85 -85 -158 -155 -162 -155 -5 0 -8 70 -8 155
l0 155 162 0 163 0 -155 -155z"/>
</g>
</svg>
